<svg width="53" height="54" viewBox="0 0 53 54" fill="none" xmlns="http://www.w3.org/2000/svg">
<circle cx="26.3889" cy="26.8929" r="26.3889" fill="#181818"/>
<path d="M26.3602 39.3449C33.241 39.3449 38.819 33.7669 38.819 26.8861C38.819 20.0053 33.241 14.4272 26.3602 14.4272C19.4794 14.4272 13.9014 20.0053 13.9014 26.8861C13.9014 33.7669 19.4794 39.3449 26.3602 39.3449Z" stroke="#F5F5F5" stroke-width="2" stroke-linecap="round" stroke-linejoin="round"/>
<path d="M16.1855 34.0759L17.704 33.1544C17.8546 33.0616 17.9789 32.9317 18.0652 32.7773C18.1515 32.6228 18.1969 32.4489 18.1971 32.2719L18.2231 27.5869C18.2252 27.3927 18.2838 27.2033 18.3918 27.0418L20.9614 23.0057C21.0385 22.8864 21.139 22.784 21.2568 22.7047C21.3746 22.6253 21.5072 22.5707 21.6467 22.544C21.7861 22.5173 21.9296 22.5192 22.0683 22.5494C22.2071 22.5797 22.3382 22.6378 22.4539 22.7202L24.9976 24.563C25.217 24.716 25.4842 24.7851 25.7503 24.7577L29.8384 24.1997C30.0864 24.1655 30.3129 24.0407 30.4743 23.8493L33.3554 20.5269C33.5262 20.3244 33.6143 20.0648 33.602 19.8001L33.4592 16.6465" stroke="#F5F5F5" stroke-width="2" stroke-linecap="round" stroke-linejoin="round"/>
<path d="M34.0297 36.7105L32.6281 35.3089C32.4984 35.1793 32.3375 35.0854 32.1609 35.0364L29.3706 34.3096C29.1255 34.2425 28.9136 34.0879 28.7749 33.875C28.6361 33.6622 28.5803 33.4058 28.6179 33.1545L28.9164 31.0521C28.946 30.8753 29.0198 30.7088 29.131 30.5681C29.2422 30.4275 29.3871 30.3172 29.5523 30.2475L33.4976 28.5993C33.6808 28.5229 33.8821 28.5006 34.0777 28.5351C34.2732 28.5696 34.4547 28.6594 34.6007 28.794L37.8322 31.7529" stroke="#F5F5F5" stroke-width="2" stroke-linecap="round" stroke-linejoin="round"/>
</svg>
