<svg width="53" height="54" viewBox="0 0 53 54" fill="none" xmlns="http://www.w3.org/2000/svg">
<circle cx="26.3889" cy="26.8929" r="26.3889" fill="#181818"/>
<path d="M27.1141 32.5924C30.4924 32.5924 33.2311 29.8537 33.2311 26.4754C33.2311 23.0971 30.4924 20.3584 27.1141 20.3584C23.7357 20.3584 20.9971 23.0971 20.9971 26.4754C20.9971 29.8537 23.7357 32.5924 27.1141 32.5924Z" stroke="#F5F5F5" stroke-width="2" stroke-linecap="round" stroke-linejoin="round"/>
<path d="M35.718 20.5094C36.0257 20.9441 36.2951 21.4041 36.5232 21.8842L39.8332 23.7006C40.2465 25.5276 40.2509 27.4217 39.846 29.2505L36.5232 31.0669C36.2951 31.547 36.0257 32.007 35.718 32.4417L35.7819 36.188C34.3791 37.4496 32.7188 38.4001 30.9127 38.9755L27.6538 37.0457C27.1177 37.0835 26.5796 37.0835 26.0435 37.0457L22.7973 38.9629C20.9855 38.398 19.3197 37.4511 17.9153 36.188L17.9792 32.4544C17.6741 32.0136 17.4049 31.5496 17.1741 31.0669L13.864 29.2505C13.4507 27.4235 13.4464 25.5295 13.8513 23.7006L17.1741 21.8842C17.4022 21.4041 17.6716 20.9441 17.9792 20.5094L17.9153 16.7632C19.3181 15.5015 20.9784 14.551 22.7846 13.9756L26.0435 15.9055C26.5796 15.8676 27.1177 15.8676 27.6538 15.9055L30.8999 13.9882C32.7118 14.5532 34.3775 15.5 35.7819 16.7632L35.718 20.5094Z" stroke="#F5F5F5" stroke-width="2" stroke-linecap="round" stroke-linejoin="round"/>
</svg>
