<svg width="53" height="53" viewBox="0 0 53 53" fill="none" xmlns="http://www.w3.org/2000/svg">
<circle cx="26.6561" cy="26.6861" r="26.1658" fill="#EAEAEA"/>
<path d="M26.2406 27.6521C28.2795 27.6521 29.9323 25.9992 29.9323 23.9603C29.9323 21.9214 28.2795 20.2686 26.2406 20.2686C24.2017 20.2686 22.5488 21.9214 22.5488 23.9603C22.5488 25.9992 24.2017 27.6521 26.2406 27.6521Z" stroke="#181818" stroke-width="2" stroke-linecap="round" stroke-linejoin="round"/>
<path d="M35.4685 23.9603C35.4685 32.2668 26.2392 38.7274 26.2392 38.7274C26.2392 38.7274 17.0098 32.2668 17.0098 23.9603C17.0098 21.5126 17.9821 19.165 19.713 17.4342C21.4438 15.7033 23.7914 14.731 26.2392 14.731C28.6869 14.731 31.0345 15.7033 32.7653 17.4342C34.4962 19.165 35.4685 21.5126 35.4685 23.9603V23.9603Z" stroke="#181818" stroke-width="2" stroke-linecap="round" stroke-linejoin="round"/>
</svg>
