<svg width="25" height="24" viewBox="0 0 25 24" fill="none" xmlns="http://www.w3.org/2000/svg">
<path d="M17.5193 2.38972C18.8446 2.39352 20.1145 2.90182 21.0516 3.8036C21.9888 4.70538 22.517 5.92737 22.521 7.20267V16.8275C22.517 18.1028 21.9888 19.3248 21.0516 20.2266C20.1145 21.1284 18.8446 21.6367 17.5193 21.6405H7.51711C6.19181 21.6367 4.92192 21.1284 3.98479 20.2266C3.04766 19.3248 2.51943 18.1028 2.51547 16.8275V7.20267C2.51943 5.92737 3.04766 4.70538 3.98479 3.8036C4.92192 2.90182 6.19181 2.39352 7.51711 2.38972H17.5193ZM17.5193 0.464844H7.51711C3.66594 0.464844 0.515137 3.49679 0.515137 7.20267V16.8275C0.515137 20.5334 3.66594 23.5654 7.51711 23.5654H17.5193C21.3705 23.5654 24.5213 20.5334 24.5213 16.8275V7.20267C24.5213 3.49679 21.3705 0.464844 17.5193 0.464844Z" fill="#181818"/>
<path d="M19.0191 7.203C18.7224 7.203 18.4323 7.11832 18.1856 6.95968C17.9388 6.80103 17.7465 6.57554 17.633 6.31172C17.5194 6.04791 17.4897 5.75761 17.5476 5.47755C17.6055 5.19748 17.7484 4.94022 17.9582 4.7383C18.168 4.53639 18.4354 4.39888 18.7264 4.34317C19.0175 4.28746 19.3192 4.31606 19.5933 4.42533C19.8675 4.53461 20.1018 4.71966 20.2667 4.95709C20.4315 5.19452 20.5195 5.47366 20.5195 5.75921C20.5199 5.94893 20.4814 6.13686 20.4062 6.31221C20.3309 6.48756 20.2204 6.64688 20.081 6.78103C19.9416 6.91518 19.776 7.02151 19.5938 7.09393C19.4116 7.16634 19.2163 7.2034 19.0191 7.203ZM12.5177 8.16517C13.309 8.16517 14.0826 8.39099 14.7406 8.81406C15.3986 9.23713 15.9114 9.83846 16.2143 10.542C16.5171 11.2455 16.5964 12.0197 16.442 12.7666C16.2876 13.5135 15.9065 14.1995 15.3469 14.738C14.7874 15.2764 14.0744 15.6431 13.2982 15.7917C12.5221 15.9403 11.7176 15.864 10.9865 15.5726C10.2553 15.2812 9.63043 14.7877 9.19077 14.1545C8.75112 13.5214 8.51645 12.7769 8.51645 12.0154C8.51758 10.9946 8.9395 10.0159 9.68963 9.2941C10.4398 8.57227 11.4568 8.16627 12.5177 8.16517ZM12.5177 6.2403C11.3307 6.2403 10.1703 6.57901 9.18338 7.21359C8.19643 7.84817 7.4272 8.75012 6.97296 9.80539C6.51871 10.8607 6.39986 12.0218 6.63143 13.1421C6.863 14.2624 7.4346 15.2914 8.27393 16.0991C9.11326 16.9067 10.1826 17.4568 11.3468 17.6796C12.511 17.9024 13.7177 17.7881 14.8143 17.351C15.911 16.9139 16.8483 16.1736 17.5078 15.2239C18.1672 14.2742 18.5192 13.1576 18.5192 12.0154C18.5192 10.4838 17.8869 9.01485 16.7614 7.9318C15.6359 6.84875 14.1094 6.2403 12.5177 6.2403Z" fill="#181818"/>
</svg>
