<svg width="30" height="30" viewBox="0 0 30 30" fill="none" xmlns="http://www.w3.org/2000/svg">
<path d="M14.84 29.24C22.9144 29.24 29.46 22.6944 29.46 14.62C29.46 6.5456 22.9144 0 14.84 0C6.76557 0 0.219971 6.5456 0.219971 14.62C0.219971 22.6944 6.76557 29.24 14.84 29.24Z" fill="black"/>
<path d="M8.71071 11.8999H11.5407V20.9999H8.71071V11.8999ZM10.1207 7.37988C11.0307 7.37988 11.7607 8.10988 11.7607 9.01988C11.7607 9.91988 11.0307 10.6599 10.1207 10.6599C9.21071 10.6599 8.48071 9.91988 8.48071 9.01988C8.48071 8.10988 9.22071 7.37988 10.1207 7.37988Z" fill="white"/>
<path d="M13.31 11.8999H16.02V13.1399H16.06C16.44 12.4199 17.36 11.6699 18.74 11.6699C21.6 11.6699 22.13 13.5499 22.13 15.9999V20.9899H19.3V16.5699C19.3 15.5099 19.28 14.1599 17.83 14.1599C16.36 14.1599 16.13 15.3099 16.13 16.4999V20.9999H13.3V11.8999H13.31Z" fill="white"/>
</svg>
