<svg width="39" height="39" viewBox="0 0 39 39" fill="none" xmlns="http://www.w3.org/2000/svg">
<path d="M19.4902 0.144043C15.7324 0.144043 12.0589 1.25837 8.93441 3.34612C5.80987 5.43387 3.3746 8.40126 1.93653 11.8731C0.498467 15.3449 0.122203 19.1651 0.855323 22.8508C1.58844 26.5364 3.39802 29.9219 6.05521 32.5791C8.71241 35.2363 12.0979 37.0458 15.7835 37.779C19.4692 38.5121 23.2894 38.1358 26.7612 36.6977C30.233 35.2597 33.2004 32.8244 35.2882 29.6999C37.3759 26.5753 38.4902 22.9019 38.4902 19.144C38.4806 14.1079 36.4757 9.28078 32.9146 5.71968C29.3535 2.15858 24.5264 0.1537 19.4902 0.144043ZM21.6825 27.9133H20.9518V29.3748C20.9518 29.7624 20.7978 30.1342 20.5237 30.4083C20.2496 30.6824 19.8779 30.8363 19.4902 30.8363C19.1026 30.8363 18.7309 30.6824 18.4568 30.4083C18.1827 30.1342 18.0287 29.7624 18.0287 29.3748V27.9133H15.1056C14.718 27.9133 14.3463 27.7593 14.0722 27.4852C13.7981 27.2111 13.6441 26.8394 13.6441 26.4517C13.6441 26.0641 13.7981 25.6924 14.0722 25.4183C14.3463 25.1442 14.718 24.9902 15.1056 24.9902H21.6825C22.264 24.9902 22.8216 24.7592 23.2327 24.3481C23.6439 23.9369 23.8749 23.3793 23.8749 22.7979C23.8749 22.2164 23.6439 21.6588 23.2327 21.2477C22.8216 20.8366 22.264 20.6056 21.6825 20.6056H17.2979C15.9412 20.6056 14.6401 20.0666 13.6808 19.1073C12.7215 18.148 12.1825 16.8469 12.1825 15.4902C12.1825 14.1335 12.7215 12.8324 13.6808 11.8731C14.6401 10.9138 15.9412 10.3748 17.2979 10.3748H18.0287V8.91327C18.0287 8.52565 18.1827 8.1539 18.4568 7.87981C18.7309 7.60572 19.1026 7.45173 19.4902 7.45173C19.8779 7.45173 20.2496 7.60572 20.5237 7.87981C20.7978 8.1539 20.9518 8.52565 20.9518 8.91327V10.3748H23.8749C24.2625 10.3748 24.6342 10.5288 24.9083 10.8029C25.1824 11.077 25.3364 11.4487 25.3364 11.8363C25.3364 12.224 25.1824 12.5957 24.9083 12.8698C24.6342 13.1439 24.2625 13.2979 23.8749 13.2979H17.2979C16.7165 13.2979 16.1589 13.5289 15.7477 13.94C15.3366 14.3511 15.1056 14.9088 15.1056 15.4902C15.1056 16.0716 15.3366 16.6293 15.7477 17.0404C16.1589 17.4515 16.7165 17.6825 17.2979 17.6825H21.6825C23.0392 17.6825 24.3403 18.2214 25.2997 19.1808C26.259 20.1401 26.7979 21.4412 26.7979 22.7979C26.7979 24.1546 26.259 25.4557 25.2997 26.415C24.3403 27.3743 23.0392 27.9133 21.6825 27.9133Z" fill="#181818"/>
</svg>
