<svg width="39" height="27" viewBox="0 0 39 27" fill="none" xmlns="http://www.w3.org/2000/svg">
<path d="M35.7759 0.144043H3.20452C2.48465 0.144043 1.79426 0.418142 1.28523 0.906042C0.776203 1.39394 0.490234 2.05567 0.490234 2.74567V8.09526V23.5424C0.490234 24.2324 0.776203 24.8941 1.28523 25.382C1.79426 25.8699 2.48465 26.144 3.20452 26.144H35.7759C36.4958 26.144 37.1862 25.8699 37.6952 25.382C38.2043 24.8941 38.4902 24.2324 38.4902 23.5424V2.74567C38.4902 2.05567 38.2043 1.39394 37.6952 0.906042C37.1862 0.418142 36.4958 0.144043 35.7759 0.144043ZM20.8474 20.9571H18.1331C17.7732 20.9571 17.428 20.82 17.1734 20.5761C16.9189 20.3321 16.7759 20.0012 16.7759 19.6562C16.7759 19.3112 16.9189 18.9804 17.1734 18.7364C17.428 18.4925 17.7732 18.3554 18.1331 18.3554H20.8474C21.2073 18.3554 21.5525 18.4925 21.807 18.7364C22.0615 18.9804 22.2045 19.3112 22.2045 19.6562C22.2045 20.0012 22.0615 20.3321 21.807 20.5761C21.5525 20.82 21.2073 20.9571 20.8474 20.9571ZM31.7045 20.9571H26.2759C25.916 20.9571 25.5708 20.82 25.3163 20.5761C25.0618 20.3321 24.9188 20.0012 24.9188 19.6562C24.9188 19.3112 25.0618 18.9804 25.3163 18.7364C25.5708 18.4925 25.916 18.3554 26.2759 18.3554H31.7045C32.0645 18.3554 32.4097 18.4925 32.6642 18.7364C32.9187 18.9804 33.0617 19.3112 33.0617 19.6562C33.0617 20.0012 32.9187 20.3321 32.6642 20.5761C32.4097 20.82 32.0645 20.9571 31.7045 20.9571ZM3.20452 6.79445V2.74567H35.7759V6.79445H3.20452Z" fill="#FFCC4A"/>
</svg>
