<svg width="37" height="31" viewBox="0 0 37 31" fill="none" xmlns="http://www.w3.org/2000/svg">
<path d="M36.4902 28.8941C36.4902 29.2256 36.3638 29.5435 36.1388 29.7779C35.9137 30.0124 35.6085 30.144 35.2902 30.144H1.69023C1.37197 30.144 1.06675 30.0124 0.841706 29.7779C0.616663 29.5435 0.490234 29.2256 0.490234 28.8941C0.490234 28.5626 0.616663 28.2447 0.841706 28.0103C1.06675 27.7758 1.37197 27.6442 1.69023 27.6442H35.2902C35.6085 27.6442 35.9137 27.7758 36.1388 28.0103C36.3638 28.2447 36.4902 28.5626 36.4902 28.8941ZM1.73523 11.7387C1.66372 11.4767 1.67631 11.1976 1.77107 10.9437C1.86584 10.6899 2.0376 10.4753 2.26023 10.3325L17.8602 0.332934C18.049 0.209513 18.2674 0.144043 18.4902 0.144043C18.7131 0.144043 18.9315 0.209513 19.1202 0.332934L34.7202 10.3325C34.9419 10.4756 35.1128 10.69 35.207 10.9432C35.3012 11.1965 35.3137 11.4749 35.2425 11.7362C35.1713 11.9975 35.0203 12.2275 34.8124 12.3915C34.6045 12.5554 34.351 12.6444 34.0902 12.6449H30.4902V22.6444H32.8902C33.2085 22.6444 33.5137 22.7761 33.7388 23.0105C33.9638 23.2449 34.0902 23.5628 34.0902 23.8943C34.0902 24.2258 33.9638 24.5438 33.7388 24.7782C33.5137 25.0126 33.2085 25.1443 32.8902 25.1443H4.09023C3.77197 25.1443 3.46675 25.0126 3.24171 24.7782C3.01666 24.5438 2.89023 24.2258 2.89023 23.8943C2.89023 23.5628 3.01666 23.2449 3.24171 23.0105C3.46675 22.7761 3.77197 22.6444 4.09023 22.6444H6.49023V12.6449H2.89023C2.62931 12.6451 2.3754 12.5568 2.16698 12.3933C1.95856 12.2298 1.80699 12 1.73523 11.7387ZM20.8902 21.3945C20.8902 21.726 21.0167 22.0439 21.2417 22.2783C21.4667 22.5127 21.772 22.6444 22.0902 22.6444C22.4085 22.6444 22.7137 22.5127 22.9388 22.2783C23.1638 22.0439 23.2902 21.726 23.2902 21.3945V13.8948C23.2902 13.5633 23.1638 13.2454 22.9388 13.011C22.7137 12.7766 22.4085 12.6449 22.0902 12.6449C21.772 12.6449 21.4667 12.7766 21.2417 13.011C21.0167 13.2454 20.8902 13.5633 20.8902 13.8948V21.3945ZM13.6902 21.3945C13.6902 21.726 13.8167 22.0439 14.0417 22.2783C14.2668 22.5127 14.572 22.6444 14.8902 22.6444C15.2085 22.6444 15.5137 22.5127 15.7388 22.2783C15.9638 22.0439 16.0902 21.726 16.0902 21.3945V13.8948C16.0902 13.5633 15.9638 13.2454 15.7388 13.011C15.5137 12.7766 15.2085 12.6449 14.8902 12.6449C14.572 12.6449 14.2668 12.7766 14.0417 13.011C13.8167 13.2454 13.6902 13.5633 13.6902 13.8948V21.3945Z" fill="#181818"/>
</svg>
