<svg width="24" height="20" viewBox="0 0 24 20" fill="none" xmlns="http://www.w3.org/2000/svg">
<path d="M23.4849 2.95234C22.6162 3.32951 21.6971 3.578 20.7567 3.68995C21.745 3.11162 22.4883 2.19283 22.8471 1.10591C21.9126 1.65193 20.892 2.03504 19.8289 2.23884C19.3813 1.77001 18.8429 1.39705 18.2465 1.14262C17.6501 0.888185 17.0082 0.7576 16.3597 0.758797C13.7342 0.758797 11.6096 2.8511 11.6096 5.43033C11.6077 5.78908 11.6488 6.14678 11.7321 6.49576C9.84945 6.40757 8.00596 5.92765 6.31956 5.08671C4.63317 4.24578 3.14099 3.06234 1.93851 1.61211C1.51665 2.32278 1.29355 3.13363 1.29252 3.95993C1.29252 5.57977 2.13824 7.01161 3.41527 7.85046C2.65867 7.83251 1.91757 7.6324 1.25489 7.26712V7.32497C1.25489 9.59083 2.8952 11.4758 5.06619 11.9049C4.65794 12.0137 4.23724 12.0688 3.81473 12.0688C3.51493 12.0693 3.21581 12.0403 2.92173 11.982C3.52527 13.8381 5.28184 15.188 7.36261 15.2266C5.67184 16.5287 3.596 17.2324 1.46138 17.2273C1.08247 17.2267 0.703925 17.2042 0.327637 17.1598C2.4992 18.5454 5.02346 19.2784 7.59998 19.2714C16.3496 19.2714 21.1296 12.1508 21.1296 5.9751C21.1296 5.77261 21.1243 5.57013 21.1146 5.37247C22.0424 4.71299 22.8451 3.89345 23.4849 2.95234Z" fill="#181818"/>
</svg>
