<svg width="53" height="53" viewBox="0 0 53 53" fill="none" xmlns="http://www.w3.org/2000/svg">
<circle cx="26.6561" cy="26.1658" r="26.1658" fill="#FFECBB"/>
<path d="M23.1026 25.1889C24.1404 27.332 25.8733 29.0605 28.019 30.0928C28.1773 30.1677 28.3524 30.2001 28.527 30.1869C28.7016 30.1736 28.8698 30.1151 29.0149 30.0171L32.1665 27.9119C32.3057 27.8174 32.4666 27.7598 32.6341 27.7444C32.8017 27.729 32.9704 27.7562 33.1245 27.8236L39.0242 30.3575C39.2259 30.4414 39.3943 30.5893 39.5037 30.7783C39.613 30.9674 39.6572 31.1872 39.6293 31.4038C39.4423 32.8633 38.73 34.2046 37.6255 35.1768C36.521 36.149 35.1002 36.6855 33.6288 36.6858C29.0818 36.6858 24.7211 34.8795 21.5059 31.6643C18.2907 28.4491 16.4844 24.0884 16.4844 19.5414C16.4847 18.07 17.0212 16.6491 17.9934 15.5447C18.9656 14.4402 20.3069 13.7278 21.7664 13.5408C21.983 13.513 22.2028 13.5572 22.3918 13.6665C22.5809 13.7758 22.7288 13.9443 22.8127 14.1459L25.3465 20.0582C25.4124 20.2099 25.44 20.3755 25.4268 20.5404C25.4136 20.7053 25.3601 20.8644 25.2709 21.0037L23.1657 24.2057C23.0719 24.3505 23.0169 24.5169 23.0059 24.6891C22.9948 24.8612 23.0282 25.0333 23.1026 25.1889V25.1889Z" stroke="#DEAA27" stroke-width="2" stroke-linecap="round" stroke-linejoin="round"/>
</svg>
